<svg width="209" height="83" viewBox="0 0 209 83" fill="none" xmlns="http://www.w3.org/2000/svg">
<path d="M0 31.9796H31.718V38.8826L15.9972 82.0773H5.66639L19.8324 43.5985C19.9706 43.2226 20.1779 42.4708 20.1779 41.9582C20.1779 40.6596 19.3141 39.7369 17.4138 39.7369L0 39.8053V31.9796Z" fill="#1A1789"/>
<path d="M56.8781 31.9796C68.3146 31.9796 76.6759 39.942 76.6759 50.8773V63.1113C76.6759 74.0125 68.3146 82.0773 56.8781 82.0773H40.2245V31.9796H56.8781ZM49.5878 71.1761C49.5878 72.9873 51.1426 74.2517 53.1812 74.2517H55.4615C62.3027 74.2517 67.3471 69.2624 67.3471 62.4962V51.5608C67.3471 44.7604 62.3027 39.8053 55.4615 39.8053H53.1812C51.1426 39.8053 49.5878 41.0697 49.5878 42.8808V71.1761Z" fill="#1A1789"/>
<path d="M97.4274 83C85.5418 83 77.595 75.7211 77.595 64.7174V49.237C77.595 38.3358 85.5418 31.057 97.4274 31.057C109.313 31.057 117.225 38.3358 117.225 49.237V64.7174C117.225 75.7211 109.313 83 97.4274 83ZM86.9584 64.1023C86.9584 70.5268 91.1391 74.7985 97.4274 74.7985C103.716 74.7985 107.896 70.5268 107.896 64.1023V49.9547C107.896 43.5301 103.716 39.2585 97.4274 39.2585C91.1391 39.2585 86.9584 43.5301 86.9584 49.9547V64.1023Z" fill="#1A1789"/>
<path d="M147.651 31.9796H157.291L147.893 71.0053C147.651 71.7912 147.098 74.5251 149.862 74.5251C151.555 74.5251 152.039 72.9873 152.281 72.2013L162.301 31.9796H171.94L158.707 82.0773H128.06L114.827 31.9796H124.951L135.143 72.4064C135.351 73.124 135.834 74.5251 137.493 74.5251C139.946 74.5251 139.67 71.8596 139.462 71.0053L129.961 31.9796H140.015L142.641 46.8791C142.71 47.2208 142.917 48.2118 143.85 48.2118C144.749 48.2118 144.991 47.2208 145.06 46.8791L147.651 31.9796Z" fill="#1A1789"/>
<path d="M171.892 82.0773V31.9796H181.255L194.972 40.0103C197.667 41.6164 199.637 40.4204 199.637 37.3448V31.9796H209V82.0773H199.637V55.7641C199.637 53.6795 198.877 52.2101 197.011 51.1507L185.92 44.6237C183.225 43.0859 181.255 44.2136 181.255 47.2892V82.0773H171.892Z" fill="#1A1789"/>
<path d="M8.13581 23.4842C2.4941 23.4842 -0.615504 20.145 0.339589 15.1362L0.428434 14.6749H6.29226L6.11457 15.6854C5.80361 17.4649 6.73649 18.761 8.44677 18.761C9.89052 18.761 10.8234 17.8383 11.0011 16.674C11.2232 15.268 10.2459 14.3673 8.84658 14.1696L7.3362 13.9499C3.38256 13.3788 1.49458 10.1714 2.18314 6.43674C2.91612 2.43849 6.22563 0 10.7123 0C16.3318 0 19.4414 3.3392 18.4641 8.36996L18.3753 8.83129H12.5115L12.7114 7.77681C13.0668 5.95343 11.9784 4.74517 10.3792 4.74517C8.80216 4.74517 7.95812 5.93147 7.78043 6.87611C7.55831 8.04043 8.3135 9.05098 9.73504 9.24869L11.0011 9.42444C15.088 9.99562 17.709 13.4666 16.7316 17.6846C15.9098 21.2874 12.4448 23.4842 8.13581 23.4842Z" fill="#1A1789"/>
<path d="M57.6176 21.4851C56.5737 22.7593 55.1077 23.4842 53.2864 23.4842C49.3327 23.4842 46.9783 20.3867 47.8446 16.015L50.8876 0.593147H56.6625L53.7084 15.6195C53.3308 17.4649 54.2859 18.6731 55.9296 18.6731C57.4399 18.6731 58.395 17.6406 58.6616 16.1687L59.7943 10.4789L61.749 0.593147H67.5239L63.0816 23.0888H57.3067L57.6176 21.4851Z" fill="#1A1789"/>
<path d="M93.0174 32.0958L99.2366 0.593147H105.012L104.767 1.82338C105.9 0.856767 107.322 0.197716 109.054 0.197716C112.83 0.197716 115.34 3.3392 114.474 7.71091L112.563 17.4649C111.853 21.1116 109.187 23.4183 105.411 23.4183C103.346 23.4183 101.791 22.7373 100.858 21.6389L98.7924 32.0958H93.0174ZM102.057 15.5756C101.702 17.377 102.657 18.5853 104.279 18.5853C105.611 18.5853 106.677 17.7724 107.011 16.1248L108.654 8.0624C109.01 6.30493 108.099 5.05273 106.433 5.05273C104.989 5.05273 103.968 5.95343 103.657 7.51319L102.057 15.5756Z" fill="#1A1789"/>
<path d="M151.539 23.5281C146.12 23.5281 142.677 20.2109 143.743 14.8067L145.476 6.12918C146.231 2.30668 149.429 0 153.849 0C158.758 0 162.712 2.78999 161.579 8.65555L160.624 13.4666H151.25C150.429 13.4666 149.829 13.906 149.629 14.8067L149.474 15.4877C149.074 17.2452 150.118 18.4534 151.761 18.4534C153.161 18.4534 154.249 17.5088 154.493 16.015L154.627 15.2461H160.268L159.846 17.4209C159.113 21.1556 156.07 23.5281 151.539 23.5281ZM150.895 8.23815C150.762 9.09491 151.206 9.60019 152.028 9.60019H154.405C155.16 9.60019 155.804 9.18279 155.982 8.36996L156.115 7.75484C156.492 6.21705 155.537 5.05273 153.849 5.05273C152.339 5.05273 151.273 5.95343 151.028 7.51319L150.895 8.23815Z" fill="#1A1789"/>
<path d="M189.915 23.0888L194.38 0.593147H200.155L199.866 2.087C200.888 0.900704 202.265 0.241652 203.931 0.241652C207.573 0.241652 209.528 3.38313 208.751 7.60106L208.573 8.61161H202.931L203.065 7.79878C203.331 6.26099 202.62 5.05273 201.11 5.05273C199.799 5.05273 199.066 6.04131 198.8 7.42532L197.134 15.7513L195.69 23.0888H189.915Z" fill="#1A1789"/>
</svg>
